<!DOCTYPE svg PUBLIC "-//W3C//DTD SVG 1.1//EN" "http://www.w3.org/Graphics/SVG/1.1/DTD/svg11.dtd">
<!-- Uploaded to: SVG Repo, www.svgrepo.com, Transformed by: SVG Repo Mixer Tools -->
<svg width="64px" height="64px" viewBox="0 0 32 32" enable-background="new 0 0 32 32" version="1.1" xml:space="preserve" xmlns="http://www.w3.org/2000/svg" xmlns:xlink="http://www.w3.org/1999/xlink" fill="#000000">
<g id="SVGRepo_bgCarrier" stroke-width="0"/>
<g id="SVGRepo_tracerCarrier" stroke-linecap="round" stroke-linejoin="round"/>
<g id="SVGRepo_iconCarrier"> <g id="ball"/> <g id="wistle"/> <g id="pitch"/> <g id="goal"/> <g id="socks"/> <g id="shoe"/> <g id="jersey"/> <g id="bottle"/> <g id="shorts"/> <g id="corner"/> <g id="winner"/> <g id="trophy"/> <g id="substitution"/> <g id="medal_award"/> <g id="strategy"/> <g id="card"/> <g id="gloves"/> <g id="stadium"/> <g id="keeper"/> <g id="time"/> <g id="horns"/> <g id="flag"/> <g id="referee"/> <g id="player"/> <g id="injury"/> <g id="supporter"/> <g id="coach"/> <g id="cone"/> <g id="captain"/> <g id="match"/> <g id="score"/> <g id="celender"> <path d="M10,15H6c-0.552,0-1-0.448-1-1v-4c0-0.552,0.448-1,1-1h4c0.552,0,1,0.448,1,1l0,4 c0,0.265-0.105,0.519-0.293,0.707S10.266,15,10,15z M7,13h2l0-2H7V13z" fill="#FFCC2F"/> <path d="M26,15h-4c-0.552,0-1-0.448-1-1v-4c0-0.552,0.448-1,1-1h4c0.552,0,1,0.448,1,1l0,4 c0,0.265-0.105,0.519-0.293,0.707S26.266,15,26,15z M23,13h2l0-2h-2V13z" fill="#FFCC2F"/> <path d="M18,15h-4c-0.552,0-1-0.448-1-1v-4c0-0.552,0.448-1,1-1h4c0.552,0,1,0.448,1,1l0,4 c0,0.265-0.105,0.519-0.293,0.707S18.266,15,18,15z M15,13h2l0-2h-2V13z" fill="#FFCC2F"/> <path d="M10,23H6c-0.552,0-1-0.448-1-1v-4c0-0.552,0.448-1,1-1h4c0.552,0,1,0.448,1,1l0,4 c0,0.265-0.105,0.52-0.293,0.707S10.266,23,10,23z M7,21h2l0-2H7V21z" fill="#FFCC2F"/> <path d="M26,23h-4c-0.552,0-1-0.448-1-1v-4c0-0.552,0.448-1,1-1h4c0.552,0,1,0.448,1,1l0,4 c0,0.265-0.105,0.52-0.293,0.707S26.266,23,26,23z M23,21h2l0-2h-2V21z" fill="#FFCC2F"/> <path d="M18,23h-4c-0.552,0-1-0.448-1-1v-4c0-0.552,0.448-1,1-1h4c0.552,0,1,0.448,1,1l0,4 c0,0.265-0.105,0.52-0.293,0.707S18.266,23,18,23z M15,21h2l0-2h-2V21z" fill="#FFCC2F"/> <path d="M30,31h-8c-0.552,0-1-0.448-1-1s0.448-1,1-1h8c0.552,0,1,0.448,1,1S30.552,31,30,31z M20,30 c0-0.552-0.448-1-1-1h-2c-0.552,0-1,0.448-1,1s0.448,1,1,1h2C19.552,31,20,30.552,20,30z M15,30c0-0.552-0.448-1-1-1H2 c-0.552,0-1,0.448-1,1s0.448,1,1,1h12C14.552,31,15,30.552,15,30z" fill="#FFCC2F"/> <path d="M30,27H2c-0.552,0-1-0.448-1-1V4c0-0.552,0.448-1,1-1h28c0.552,0,1,0.448,1,1l0,22 c0,0.265-0.105,0.52-0.293,0.707S30.266,27,30,27z M3,25h26l0-20H3V25z" fill="#FF911C"/> <path d="M16,7c-0.552,0-1-0.447-1-0.999L15,2c0-0.552,0.448-1,1-1s1,0.448,1,1l0,3.999C17,6.552,16.553,7,16,7 C16,7,16,7,16,7z M22.001,7c0.552,0,1-0.448,1-1.001L23,2c0-0.552-0.448-1-1-1s-1,0.448-1,1l0,4.001C21,6.553,21.448,7,22.001,7 C22,7,22,7,22.001,7z M10.001,7C10.553,7,11,6.552,11,5.999L11,2c0-0.552-0.448-1-1-1S9,1.448,9,2l0,4.001 C9,6.553,9.448,7,10.001,7C10,7,10,7,10.001,7z" fill="#FFCC2F"/> </g> <g id="grass"/> <g id="game"/> <g id="subsitutions"/> <g id="bench"/> </g>
</svg>